<?xml version="1.0" encoding="utf-8"?>
<svg viewBox="-460.99 628.607 3030.174 640.963" xmlns="http://www.w3.org/2000/svg">
  <g transform="matrix(8.010778, 0, 0, 8.010778, -407.138153, 489.92276)">
    <g id="SvgjsG2290" featurekey="HKaMnE-0" transform="matrix(1.0865976891035272,0,0,1.0865976891035272,-7.577079652631909,2.5716321582173904)" fill="#3366ff">
      <g xmlns="http://www.w3.org/2000/svg">
        <g>
          <path d="M84.88,36.3c4.414,0,7.995-3.581,7.995-7.995c0-4.418-3.581-7.999-7.995-7.999c-4.418,0-7.999,3.581-7.999,7.999    C76.881,32.719,80.462,36.3,84.88,36.3z"/>
          <path d="M92.875,46.715H81.158l-3.539-8.513c-0.149-0.362-0.354-0.701-0.607-0.999l-0.237-0.28l-7.917-9.396l-6.983-8.285    c-0.728-0.864-1.799-1.362-2.93-1.362H43.809c-2.117,0-3.833,1.715-3.833,3.834c0,2.115,1.716,3.831,3.833,3.831h13.352    l4.233,5.025L44.659,46.387c-0.389,0.264-0.756,0.567-1.091,0.92c-2.476,2.617-2.363,6.749,0.253,9.224l12.976,12.279    l-16.841,4.037c-2.086,0.499-3.372,2.597-2.871,4.683c0.5,2.086,2.595,3.372,4.682,2.87l23.783-5.698    c0.444-0.108,0.888-0.298,1.285-0.571c1.762-1.208,2.211-3.616,1.004-5.378l-0.241-0.352l-9.823-14.328l14.042-9.858l3.244,7.806    c0.596,1.431,1.99,2.362,3.541,2.362h14.273c2.117,0,3.832-1.717,3.832-3.833S94.992,46.715,92.875,46.715z"/>
          <path d="M40.578,59.957c-2.019-1.912-3.226-4.449-3.459-7.198L11.484,74.757c-1.676,1.444-1.956,3.972-0.585,5.74    c1.416,1.829,4.045,2.163,5.873,0.747l25.47-19.711L40.578,59.957z"/>
        </g>
        <path d="M46.06,34.787c0,1.338-1.083,2.422-2.422,2.422H23.884c-1.339,0-2.423-1.084-2.423-2.422l0,0   c0-1.34,1.084-2.424,2.423-2.424h19.753C44.977,32.363,46.06,33.447,46.06,34.787L46.06,34.787z"/>
        <path d="M36.976,43.871c0,1.338-1.084,2.422-2.423,2.422H14.8c-1.339,0-2.423-1.084-2.423-2.422l0,0   c0-1.34,1.084-2.423,2.423-2.423h19.753C35.892,41.447,36.976,42.531,36.976,43.871L36.976,43.871z"/>
        <path d="M27.892,52.956c0,1.338-1.084,2.422-2.423,2.422H5.715c-1.338,0-2.423-1.084-2.423-2.422l0,0   c0-1.341,1.084-2.425,2.423-2.425h19.753C26.807,50.531,27.892,51.615,27.892,52.956L27.892,52.956z"/>
      </g>
    </g>
    <g id="SvgjsG2291" featurekey="J3GnXt-0" transform="matrix(3.9451002334397294,0,0,3.9451002334397294,118.53265167346095,9.35134456551085)" fill="#111111">
      <path d="M2.7832 13.789100000000001 l-1.0645 0 l0.3125 -1.4453 l-1.1523 0 l0.74219 -3.2422 l1.1816 0 l0.6543 -2.8613 l4.6387 0 l-0.6543 2.8613 l2.9102 0 l-0.74219 3.2422 l-2.9395 0 c-0.087891 0.49805 -0.19531 0.94727 -0.3125 1.4453 l1.0547 0 c-0.19531 0.83984 -0.40039 1.6699 -0.57617 2.5195 c-0.36133 1.6504 0.9375 1.5137 1.4355 0.49805 l1.3574 0 l-0.76172 3.3789 c-1.377 0.11719 -3.6328 0.29297 -5.166 -0.019531 c-1.7773 -0.38086 -1.9141 -2.0703 -1.5527 -3.6719 z M11.25005 13.789100000000001 l-1.0254 0 l0.84961 -3.7793 l4.6582 0 l-0.84961 3.7793 l1.0352 0 l-1.377 6.2109 l-4.6582 0 z M16.93355 5.234 l-0.81055 3.5352 l-4.8242 0 l0.81055 -3.5352 l4.8242 0 z M32.656171875 20.039063 l-4.6094 0 c0.48828 -2.0801 1.0645 -4.2676 1.4648 -6.3672 l-0.97656 0 c0.0097656 -0.097656 0.029297 -0.19531 0.048828 -0.30273 c0.058594 -0.3125 0.068359 -0.54688 0.039063 -0.70313 c-0.068359 -0.51758 -0.82031 -0.3125 -1.0352 0 l-0.21484 1.0059 l0.98633 0 l-1.4746 6.3672 l-4.6191 0 c0.47852 -2.0996 1.0547 -4.248 1.4746 -6.3672 l-1.0059 0 c0.019531 -0.097656 0.039063 -0.19531 0.058594 -0.30273 c0.068359 -0.32227 0.087891 -0.56641 0.078125 -0.71289 l-0.0097656 0.0097656 c-0.14648 -0.50781 -0.79102 -0.30273 -1.0156 0.0097656 l-0.22461 0.99609 l0.98633 0 l-1.4746 6.3672 l-4.5996 0 l1.4746 -6.3672 l-0.98633 0 l1.0645 -4.6387 l4.6094 0 l-0.10742 0.39063 c1.4941 -0.73242 3.7305 -1.2988 4.7559 0.49805 c2.4512 -1.6797 6.5625 -1.9629 6.1133 2.0801 c-0.029297 0.30273 -0.10742 0.6543 -0.17578 1.0352 l-0.13672 0.63477 l0.9668 0 z M35.136684375 14.5703 c0.078125 -0.33203 0.18555 -0.625 0.2832 -0.9375 l-1.084 0 c2.3438 -6.377 12.383 -7.0117 11.084 0 l1.0938 0 c-0.019531 0.11719 -0.019531 0.23438 -0.048828 0.36133 l-0.41992 1.6309 l-6.4648 0 c-0.33203 2.4121 4.248 1.6797 4.6973 0.81055 l1.4941 0 l-0.71289 2.7832 c-3.8574 2.2168 -11.357 1.6602 -9.9219 -4.6484 z M42.060584375 12.685500000000001 c0.21484 -1.0645 -2.1289 -1.6699 -3.2324 0 c0.0097656 0 3.2324 0.0097656 3.2324 0 z M51.84566875 13.6328 l-1.4453 6.3574 l-4.5801 0 l1.4551 -6.3574 l-0.88867 0 l1.0645 -4.6094 l4.5801 0 l-0.13672 0.52734 c1.2891 -0.6543 2.1973 -0.6543 3.5352 -0.41016 l-0.89844 3.877 l-1.2109 0 c-0.20508 -0.92773 -1.9238 -0.57617 -2.2461 0.14648 l-0.11719 0.46875 l0.88867 0 z M60.28316875 13.6328 l-1.4453 6.3574 l-4.5801 0 l1.4551 -6.3574 l-0.88867 0 l1.0645 -4.6094 l4.5801 0 l-0.13672 0.52734 c1.2891 -0.6543 2.1973 -0.6543 3.5352 -0.41016 l-0.89844 3.877 l-1.2109 0 c-0.20508 -0.92773 -1.9238 -0.57617 -2.2461 0.14648 l-0.11719 0.46875 l0.88867 0 z"/>
    </g>
  </g>
</svg>